<?xml version="1.0" standalone="no"?>
<!DOCTYPE svg PUBLIC "-//W3C//DTD SVG 20010904//EN"
 "http://www.w3.org/TR/2001/REC-SVG-20010904/DTD/svg10.dtd">
<svg version="1.0" xmlns="http://www.w3.org/2000/svg"
 width="210.000000pt" height="224.000000pt" viewBox="0 0 210.000000 224.000000"
 preserveAspectRatio="xMidYMid meet">
<metadata>
Created by potrace 1.15, written by Peter Selinger 2001-2017
</metadata>
<g transform="translate(0.000000,224.000000) scale(0.100000,-0.100000)"
fill="#000000" stroke="none">
<path d="M330 1523 c0 -639 7 -780 41 -903 102 -369 475 -600 871 -539 169 26
310 98 434 223 92 93 151 186 190 301 23 67 28 101 32 216 5 164 -14 256 -80
389 -35 70 -60 103 -143 186 -183 184 -363 249 -629 229 l-96 -7 0 -330 c0
-311 1 -330 18 -323 123 51 175 56 234 23 75 -43 105 -131 70 -210 -28 -65
-80 -101 -150 -106 -73 -5 -116 22 -152 93 l-25 50 -3 658 -3 657 -304 0 -305
0 0 -607z"/>
</g>
</svg>
